<?xml version="1.0" encoding="UTF-8"?>
<svg width="200" height="200" viewBox="0 0 200 200" xmlns="http://www.w3.org/2000/svg">
  <!-- Arka plan daire -->
  <circle cx="100" cy="100" r="95" fill="#A1A152"/>
  
  <!-- Taksi gövdesi -->
  <path d="M50 110 L150 110 L145 130 L55 130 Z" fill="#3A3A3A"/>
  <rect x="60" y="100" width="80" height="10" rx="5" fill="#3A3A3A"/>
  
  <!-- Taksi camları -->
  <rect x="70" y="105" width="60" height="15" rx="2" fill="#A1A152"/>
  
  <!-- Taksi lambası (üst) -->
  <rect x="85" y="85" width="30" height="12" rx="6" fill="#A1A152"/>
  <rect x="85" y="85" width="30" height="8" rx="4" fill="#3A3A3A"/>
  
  <!-- Tekerlekler -->
  <circle cx="70" cy="140" r="8" fill="#3A3A3A"/>
  <circle cx="130" cy="140" r="8" fill="#3A3A3A"/>
  
  <!-- El sıkışması simgesi -->
  <!-- Sol kol -->
  <path d="M60 150 Q80 140 90 155" stroke="#A1A152" stroke-width="8" fill="none" stroke-linecap="round"/>
  <!-- Sağ kol -->
  <path d="M140 150 Q120 140 110 155" stroke="#A1A152" stroke-width="8" fill="none" stroke-linecap="round"/>
  <!-- El sıkışması ortası -->
  <ellipse cx="100" cy="155" rx="8" ry="4" fill="#A1A152"/>
  
  <!-- Parmaklar -->
  <rect x="92" y="160" width="4" height="8" rx="2" fill="#A1A152"/>
  <rect x="97" y="162" width="4" height="6" rx="2" fill="#A1A152"/>
  <rect x="102" y="160" width="4" height="8" rx="2" fill="#A1A152"/>
  <rect x="107" y="162" width="4" height="6" rx="2" fill="#A1A152"/>
</svg>
